<?xml version="1.0" standalone="no"?>
<!DOCTYPE svg PUBLIC "-//W3C//DTD SVG 20010904//EN"
 "http://www.w3.org/TR/2001/REC-SVG-20010904/DTD/svg10.dtd">
<svg version="1.0" xmlns="http://www.w3.org/2000/svg"
 width="60.000000pt" height="138.000000pt" viewBox="0 0 60.000000 138.000000"
 preserveAspectRatio="xMidYMid meet">
<metadata>
Created by potrace 1.14, written by Peter Selinger 2001-2017
</metadata>
<g transform="translate(0.000000,138.000000) scale(0.100000,-0.100000)"
fill="#000000" stroke="none">
<path d="M340 1350 c-53 -57 -74 -130 -75 -261 l0 -117 -76 -79 c-98 -103
-134 -174 -134 -263 1 -150 108 -271 241 -272 50 -1 55 -3 61 -27 4 -14 7 -66
8 -114 0 -88 0 -89 -33 -118 -38 -34 -100 -40 -128 -12 -16 16 -15 18 10 24
41 11 56 28 56 63 0 48 -25 76 -66 76 -66 0 -95 -70 -59 -140 41 -80 189 -80
230 0 16 32 19 132 6 213 -8 45 -6 49 18 62 30 15 73 60 90 92 17 34 13 133
-7 173 -21 42 -69 76 -121 85 l-38 6 -7 61 c-6 58 -5 61 30 101 85 101 121
233 94 348 -15 64 -46 129 -61 129 -6 0 -24 -14 -39 -30z m79 -116 c19 -42 -9
-121 -65 -183 -25 -28 -50 -51 -55 -51 -15 0 -10 124 6 171 30 84 89 117 114
63z m-120 -466 c1 -31 -4 -39 -34 -57 -39 -23 -74 -87 -75 -134 0 -41 28 -94
62 -118 40 -29 45 -18 8 19 -34 34 -38 67 -15 112 14 28 42 50 63 50 5 0 14
-46 21 -102 7 -57 15 -115 17 -130 5 -27 4 -28 -41 -28 -114 0 -204 86 -205
196 0 63 50 154 123 219 59 54 62 55 68 33 4 -13 7 -39 8 -60z m119 -164 c42
-44 46 -103 12 -159 -19 -30 -60 -62 -60 -48 0 5 -7 55 -15 113 -20 143 -20
143 8 135 12 -4 37 -22 55 -41z"/>
</g>
</svg>
